<svg xmlns="http://www.w3.org/2000/svg" aria-hidden="true" style="position:absolute;width:0;height:0;overflow:hidden">
  <defs>
    <symbol id="icon-error" viewBox="0 0 32 32">
      <path fill="#fafafb" d="M9.08.292A.998.998 0 0 1 9.786 0h12.428c.265 0 .519.105.706.292l8.788 8.788a.998.998 0 0 1 .292.706v12.428a.998.998 0 0 1-.292.706l-8.788 8.788a.998.998 0 0 1-.706.292H9.786a.998.998 0 0 1-.706-.292L.292 22.92A.998.998 0 0 1 0 22.214V9.786c0-.265.105-.519.292-.706L9.08.292zM10.2 2 2 10.2v11.6l8.2 8.2h11.6l8.2-8.2V10.2L21.8 2H10.2z" style="fill:var(--color1, #fafafb)"/>
      <path fill="#fafafb" d="M9.292 9.292A.991.991 0 0 1 10 8.999a1.002 1.002 0 0 1 .708.293L16 14.586l5.292-5.294A.991.991 0 0 1 22 8.999a1.006 1.006 0 0 1 .925.618 1.01 1.01 0 0 1 0 .766c-.05.121-.124.232-.217.325L17.414 16l5.294 5.292a.991.991 0 0 1 .293.708 1.006 1.006 0 0 1-.618.925 1.01 1.01 0 0 1-.766 0 1.002 1.002 0 0 1-.325-.217L16 17.414l-5.292 5.294a.991.991 0 0 1-.708.293 1.002 1.002 0 0 1-.708-1.709L14.586 16l-5.294-5.292A.991.991 0 0 1 8.999 10a1.002 1.002 0 0 1 .293-.708z" style="fill:var(--color1, #fafafb)"/>
    </symbol>
    <symbol id="icon-ok" viewBox="0 0 35 32">
      <path fill="#fff" d="M2.8 16A13.2 13.2 0 0 1 22.6 4.566a1.2 1.2 0 0 0 1.201-2.078A15.601 15.601 0 0 0 2.49 23.796a15.598 15.598 0 0 0 29.11-7.797 1.2 1.2 0 0 0-2.4 0 13.203 13.203 0 0 1-13.2 13.2 13.203 13.203 0 0 1-13.2-13.2z" style="fill:var(--color2, #fff)"/>
      <path fill="#fff" d="M33.65 4.85a1.19 1.19 0 0 0 .351-.85 1.21 1.21 0 0 0-.351-.85 1.21 1.21 0 0 0-1.7 0L16 19.103 9.65 12.75a1.19 1.19 0 0 0-.85-.351 1.21 1.21 0 0 0-.85.351 1.19 1.19 0 0 0-.351.85 1.21 1.21 0 0 0 .351.85l7.2 7.2a1.198 1.198 0 0 0 1.7 0l16.8-16.8z" style="fill:var(--color2, #fff)"/>
    </symbol>
  </defs>
</svg>
